<mxfile host="app.diagrams.net" agent="Mozilla/5.0 (Windows NT 10.0; Win64; x64) AppleWebKit/537.36 (KHTML, like Gecko) Chrome/132.0.0.0 Safari/537.36" version="26.0.10">
  <diagram name="Seite-1" id="FEQosqj7v2g-kvn3N7ki">
    <mxGraphModel dx="5125" dy="1800" grid="1" gridSize="10" guides="1" tooltips="1" connect="1" arrows="1" fold="1" page="1" pageScale="1" pageWidth="827" pageHeight="1169" math="0" shadow="0">
      <root>
        <mxCell id="0" />
        <mxCell id="1" parent="0" />
        <mxCell id="10bdPa7GnfOlh6_msLpF-16" value="" style="whiteSpace=wrap;html=1;aspect=fixed;" vertex="1" parent="1">
          <mxGeometry x="-980" y="440" width="1300" height="1300" as="geometry" />
        </mxCell>
        <mxCell id="10bdPa7GnfOlh6_msLpF-8" value="Authentication Domain" style="group" vertex="1" connectable="0" parent="1">
          <mxGeometry x="-550" y="570" width="420" height="420" as="geometry" />
        </mxCell>
        <mxCell id="10bdPa7GnfOlh6_msLpF-7" value="" style="whiteSpace=wrap;html=1;aspect=fixed;" vertex="1" parent="10bdPa7GnfOlh6_msLpF-8">
          <mxGeometry y="-10" width="420" height="420" as="geometry" />
        </mxCell>
        <mxCell id="10bdPa7GnfOlh6_msLpF-4" style="edgeStyle=orthogonalEdgeStyle;rounded=0;orthogonalLoop=1;jettySize=auto;html=1;exitX=0.5;exitY=1;exitDx=0;exitDy=0;entryX=0.5;entryY=0;entryDx=0;entryDy=0;" edge="1" parent="10bdPa7GnfOlh6_msLpF-8" source="10bdPa7GnfOlh6_msLpF-1" target="10bdPa7GnfOlh6_msLpF-2">
          <mxGeometry relative="1" as="geometry" />
        </mxCell>
        <mxCell id="10bdPa7GnfOlh6_msLpF-1" value="Caddy" style="shape=image;verticalLabelPosition=bottom;labelBackgroundColor=default;verticalAlign=top;aspect=fixed;imageAspect=0;editableCssRules=.*;image=data:image/svg+xml,PHN2ZyB4bWxucz0iaHR0cDovL3d3dy53My5vcmcvMjAwMC9zdmciIHZpZXdCb3g9IjAgMCA1MTIgNTEyIiB2ZXJzaW9uPSIxLjEiIHk9IjAiIHg9IjAiIGlkPSJMYXllcl8xIiB4bWw6c3BhY2U9InByZXNlcnZlIj48c3R5bGU+LnN0MHtmaWxsLXJ1bGU6ZXZlbm9kZDtjbGlwLXJ1bGU6ZXZlbm9kZDtmaWxsOiMxZjg4YzB9PC9zdHlsZT48ZyB0cmFuc2Zvcm09Im1hdHJpeCguODU4MDEgMCAwIC45MDc0OCAtMzIyNC45OSAtMTQzNS44MykiIGlkPSJJY29uIj48cGF0aCBjbGFzcz0ic3QwIiBkPSJNNDMxNC42OTMgMTc5NS4yMjdjNy40MiAzMy45OTMgNi42NzMgNjcuNTY1LjU2MyA5OS43MzYtNi4yMSAzMi42NTctMTguNzIyIDYzLjU1Mi0zNi42NDEgOTEuNDQ1YTMwNyAzMDcgMCAwIDEtMjMuNjM4IDMyLjAzNWMtOC41ODUgMTAuMDQ4LTE3Ljg3NyAxOS43NS0yNy45OSAyOC42NzQtMjkuNTkzIDI2LjQxOC02NS4zODggNDcuNDQtMTA2LjkwNyA1OS40MDktMzIuOTEgOS43MzktNjYuMTM5IDEzLjQyNi05OC42IDExLjM4My0zNC4xOS0yLjE5My02Ny4yMjMtMTAuMzczLTk3Ljc3NS0yMy44OThsLTMgNS40MDdjMzAuNDAyIDE2LjQwMyA2My44OTYgMjcuNDUyIDk5LjA2OCAzMi40NSAzNC40NyA0Ljk1NyA3MC4zMzEgMy45NCAxMDYuNDI0LTMuNjU5IDQ2Ljc5Ni0xMC4zMTQgODguNDYzLTMwLjYwOCAxMjIuNTQ1LTU4LjMwNmEyNTYgMjU2IDAgMCAwIDMyLjM2NS0zMS41MzRjOS43NDgtMTEuNDM1IDE4LjUzLTIzLjYwOCAyNS45OS0zNi40MjQgMTguNTAyLTMxLjczMiAzMC4zNDYtNjcuMTI3IDMzLjctMTAzLjg1MyAzLjE1Mi0zNC45MDctMS4zMzUtNzAuODM2LTEzLjc3My0xMDYuMDkyem0tNDcyLjYwMyAyMzUuMjY2Yy0xMy41OTMtMTQuMDgtMjUuNzU2LTI5LjY5My0zNS44NTgtNDYuNzgtOS44NDMtMTYuNjk1LTE3LjY0LTM0LjYyOS0yMy41MTYtNTMuNjkyLTIuMjQ1LTkuNTI1LTMuOTMyLTE4Ljk3LTQuOTM2LTI4LjQ0NC00LjEwNC0zOC43OTMgMi41MjQtNzYuNDczIDE1LjU5NS0xMTEuNTgzIDYuOTk5LTE4LjgzIDE2LjMzNC0zNi42NzUgMjYuOTU4LTUzLjcxNCAxNC4xNzktMjIuNjcyIDMwLjk3LTQzLjg5NiA1MS4zNS02Mi4zMjIgMjkuOTU5LTI3LjA1MyA2Ni4zMi00OC41MzQgMTA4LjU5LTYwLjg1NyAzNC4zOC05Ljk4IDY5LjIwNy0xMy43MTEgMTAyLjk5Ny0xMC43MiAyMy40OTMgMi4wNjcgNDYuNDkyIDYuODc1IDY4LjA3MyAxNC45NzggMjQuNDAzIDkuMTg4IDQ2LjkxNiAyMi40ODkgNjcuMTg5IDM4LjMwOCAxOS44OSAxNS41MzcgMzcuMjc4IDM0LjA0NyA1MS45MzQgNTQuNjcgMS45NSAyLjcgMy4xNzEgNS44MjQgNS41ODUgOC4yNDYgMS44NjQgMS44MDMgMy45OCAyLjU0IDYuMTI0IDMuOTZsOC43Mi01LjI1MmMtLjU0OC0yLjYxNS0uNTEyLTQuNzczLTEuNjEzLTcuMTYzLTEuNTI2LTMuMTItNC4zMTctNS41MTgtNi42NDUtOC4xOTMtMjMuODYzLTI4LjM1OS01My4zNy01MS40NDYtODYuMjUyLTY4Ljc5Ni0xNC4wMTktNy4zNjgtMjguNjY3LTEzLjY0Ny00My42OTUtMTkuMDU2LTE2LjU2Ni01Ljk5NS0zMy42MTgtMTAuOTM5LTUxLjE4NC0xNC4zNjQtNDAuMDkyLTcuOS04Mi4zOC04LjUzNy0xMjQuODYyLjY5OC00Ni4xMTkgOS45OC04Ny4xODUgMjkuNjUyLTEyMC44NjMgNTYuODU4LTIzLjM5IDE4LjkyNi00My41OCA0MS4yMTQtNTguNjMzIDY2LjM0NS0xMS4yOTYgMTguODMtMTkuNTQ0IDM5LjI5OS0yNS4wMTMgNjAuNDA0LTkuODIgMzguMDc1LTkuOTM1IDc4LjMwNi0xLjA4IDExOC41MTEgMi4wODMgOS40OTIgNC41NDMgMTguOTYgNy43MDUgMjguNDcgNS4xMTIgMTkuNjUgMTIuNTI0IDM4LjE0OCAyMS42NDMgNTUuNTc1IDkuNDU0IDE4LjEwMyAyMC43MiAzNC45NTUgMzMuNzQxIDUwLjMzOHoiLz48cGF0aCB0cmFuc2Zvcm09InJvdGF0ZSgtMTcxLjMyMSAyMTA3LjY3MiA3NDguNzQ2KXNjYWxlKDMuNDEwMTQpIiBzdHlsZT0iZmlsbDpub25lO3N0cm9rZTojMWY4OGMwO3N0cm9rZS13aWR0aDo1Ljc4MTk7c3Ryb2tlLWxpbmVqb2luOnJvdW5kO3N0cm9rZS1taXRlcmxpbWl0OjIyLjAyNjQiIGQ9Ik0tNTEuNyAyNi40Yy4xLTYuNC01LjUtMTEuNi0xMi4yLTExLjYtMy42IDAtNi44IDEuNS05LjEgMy45LTIgMi4xLTMuMyA0LjktMy4zIDcuOS0uMSA2LjQgNS41IDExLjYgMTIuMiAxMS42IDYuNy0uMSAxMi4zLTUuNCAxMi40LTExLjh6Ii8+PHBhdGggY2xhc3M9InN0MCIgZD0iTTQyMTcuMTY0IDE4MzIuMDY3czcuMjMtNi40ODQgMTYuNjc3LTE0LjY3MWMxNS45MjItMTUuMDI3IDM3LjQzLTM2LjIxMyAzNy40My0zNi4yMTNsLTcuMDMxLTcuNzA3cy0yNS4zMzYgMTYuNjM3LTQzLjM5MyAyOS41NTljLTkuOTgyIDcuNjYtMTguMjggMTMuMDkyLTE4LjI4IDEzLjA5MnoiLz48ZyBpZD0iUGFkbG9jayI+PHBhdGggdHJhbnNmb3JtPSJ0cmFuc2xhdGUoMzkzOC4zMSAxNzM3LjI1KXNjYWxlKDMuMTE0MjYpIiBzdHlsZT0iZmlsbDpub25lO3N0cm9rZTojMjJiNjM4O3N0cm9rZS13aWR0aDo5LjUwNDU7c3Ryb2tlLW1pdGVybGltaXQ6MjAuMTE1MyIgZD0iTTI0LjEgOTEuMmg1MWMyLjkgMCA1LjItMi4yIDUuMi00LjlWMzcuOWMwLTIuNy0yLjMtNC45LTUuMi00LjlILS44Qy0zLjcgMzMtNiAzNS4yLTYgMzcuOXYyOC42Ii8+PHBhdGggdHJhbnNmb3JtPSJ0cmFuc2xhdGUoMzkzOC4zMSAxNzM3LjI1KXNjYWxlKDMuMTE0MjYpIiBzdHlsZT0iZmlsbDpub25lO3N0cm9rZTojMjJiNjM4O3N0cm9rZS13aWR0aDo5LjUwNDU7c3Ryb2tlLWxpbmVqb2luOnJvdW5kO3N0cm9rZS1taXRlcmxpbWl0OjIwLjExNTMiIGQ9Ik0xMi42IDMzVjkuN2MwLTEyLjggMTEuMS0yMy4zIDI0LjYtMjMuM1M2MS44LTMuMSA2MS44IDkuN1YzMyIvPjwvZz48cGF0aCB0cmFuc2Zvcm09InJvdGF0ZSg3LjQ4MyAtMTEyODYuMDUxIDMwMzIyLjY3KXNjYWxlKDUuMzU1MzgpIiBzdHlsZT0iZmlsbDpub25lO3N0cm9rZTojMWY4OGMwO3N0cm9rZS13aWR0aDo4LjQ3NDg7c3Ryb2tlLWxpbmVqb2luOnJvdW5kO3N0cm9rZS1taXRlcmxpbWl0OjM0LjU5MDgiIGQ9Ik0yOC41IDU2LjNjMC0yLS41LTMuOS0xLjQtNS41LTIuMS0zLjYtNi4xLTYuMS0xMC44LTYuMUM5LjYgNDQuNyA0IDUwIDMuOSA1Ni40IDMuOSA2Mi44IDkuNCA2OCAxNi4xIDY4czEyLjMtNS4zIDEyLjQtMTEuN3oiLz48cGF0aCBjbGFzcz0ic3QwIiBkPSJNNDAzNi42NTcgMTkyMy4zNDRzLTQwLjQxNyAyMy4wMzItNjkuNTggNDAuNTIxYy0xNi40OTIgMTAuMjIxLTI4Ljk0MSAxOC41OC0yOC45NDEgMTguNThsMjUuODA1IDMxLjE0MXMxMS44NDUtOS4xNTIgMjYuMDMxLTIyLjAwNmMyNS4wNDYtMjIuNTA2IDU4LjQzNS01My45ODEgNTguNDM1LTUzLjk4MXoiLz48L2c+PC9zdmc+;" vertex="1" parent="10bdPa7GnfOlh6_msLpF-8">
          <mxGeometry x="24.97999999999999" y="15" width="132" height="132" as="geometry" />
        </mxCell>
        <mxCell id="10bdPa7GnfOlh6_msLpF-6" style="edgeStyle=orthogonalEdgeStyle;rounded=0;orthogonalLoop=1;jettySize=auto;html=1;exitX=1;exitY=0.5;exitDx=0;exitDy=0;entryX=0;entryY=0.5;entryDx=0;entryDy=0;" edge="1" parent="10bdPa7GnfOlh6_msLpF-8" source="10bdPa7GnfOlh6_msLpF-2" target="10bdPa7GnfOlh6_msLpF-5">
          <mxGeometry relative="1" as="geometry" />
        </mxCell>
        <mxCell id="10bdPa7GnfOlh6_msLpF-2" value="Authentik" style="shape=image;verticalLabelPosition=bottom;labelBackgroundColor=default;verticalAlign=top;aspect=fixed;imageAspect=0;editableCssRules=.*;image=data:image/svg+xml,PHN2ZyB4bWxucz0iaHR0cDovL3d3dy53My5vcmcvMjAwMC9zdmciIHZpZXdCb3g9Ii0wLjAzIDU5LjkgNTEyLjAzIDM5Mi4xIiB2ZXJzaW9uPSIxLjEiIHk9IjAiIHg9IjAiIGlkPSJMYXllcl8xIiB4bWw6c3BhY2U9InByZXNlcnZlIj48c3R5bGU+LnN0MHtmaWxsOiNmZDRiMmR9PC9zdHlsZT48cGF0aCBjbGFzcz0ic3QwIiBkPSJNMjc5LjkgMTQxaDE3Ljl2NTEuMmgtMTcuOXptNDYuNi0yLjJoMTcuOXY0MGgtMTcuOXpNNjUuMyAxOTcuM2MtMjQgMC00NiAxMy4yLTU3LjQgMzQuM2gzMC40YzEzLjUtMTEuNiAzMy0xNSA0Ny4xIDBoMzIuMmMtMTIuNi0xNy4xLTMxLjQtMzQuMy01Mi4zLTM0LjMiLz48cGF0aCBjbGFzcz0ic3QwIiBkPSJNMTA4LjcgMjYyLjRDNjYuOCAzNTAtNi42IDI3NS4zIDM4LjMgMjMxLjVINy45Qy0xNS45IDI3MyAxNyAzMjkgNjUuMyAzMjcuOGMzNy40IDAgNjguMi01NS41IDY4LjItNjUuMyAwLTQuMy02LTE3LjYtMTYtMzFIODUuNGMxMC43IDkuNyAyMCAyMy43IDIzLjMgMzAuOW0xLjEtMi42Ii8+PHBhdGggY2xhc3M9InN0MCIgZD0iTTUxMiAxNDAuM3YyMzEuM2MwIDQ0LjMtMzYuMSA4MC40LTgwLjQgODAuNGgtMzQuMXYtNzguOGgtMTYzVjQ1MmgtMzQuMWMtNDQuNCAwLTgwLjQtMzYuMS04MC40LTgwLjR2LTcyLjhoMjU4LjR2LTEzOUgyNTMuNlYyMzhIMTE5Ljl2LTk3LjZjMC0zLjEuMi02LjIuNS05LjIuNC0zLjcgMS4xLTcuMyAyLTEwLjguMy0xLjEuNi0yLjMgMS0zLjQuMS0uMy4yLS42LjMtLjguMi0uNi40LTEuMS41LTEuNy4yLS41LjQtMS4xLjYtMS43cy41LTEuMi43LTEuOC41LTEuMi44LTEuOGMyLTQuNyA0LjQtOS4zIDcuMy0xMy42bC4xLS4xYy43LTEuMSAxLjUtMi4xIDIuMy0zLjIuNy0uOSAxLjMtMS43IDItMi42LjgtLjkgMS42LTEuOSAyLjQtMi44czEuNi0xLjggMi40LTIuNmwuMS0uMWMuNC0uNS45LS45IDEuNC0xLjQgMy0yLjkgNi4yLTUuNiA5LjYtOCAuOS0uNyAxLjktMS4zIDIuOC0xLjkgMS4xLS43IDIuMi0xLjQgMy4zLTIgMi4xLTEuMiA0LjItMi40IDYuNS0zLjQuNy0uMyAxLjQtLjcgMi4xLTEgMy4xLTEuMyA2LjItMi41IDkuNC0zLjQgMS4yLS40IDIuNS0uNyAzLjctMSAuNi0uMiAxLjItLjMgMS44LS40IDMuNi0uOCA3LjItMS4zIDEwLjktMS42bDEuNi0uMWguOGMxLjItLjEgMi40LS4xIDMuNy0uMWgyMzEuM2MxLjIgMCAyLjUgMCAzLjcuMWguOGwxLjYuMWMzLjcuMyA3LjMuOCAxMC45IDEuNi42LjEgMS4yLjMgMS44LjQgMS4zLjMgMi41LjYgMy43IDEgMy4yLjkgNi4zIDIuMSA5LjQgMy40LjcuMyAxLjQuNiAyLjEgMSAyLjIgMSA0LjQgMi4yIDYuNSAzLjQgMS4xLjcgMi4yIDEuMyAzLjMgMiAxIC42IDEuOSAxLjMgMi44IDEuOSAzLjkgMi44IDcuNiA2IDExIDkuNC44LjggMS43IDEuNyAyLjQgMi42LjguOSAxLjYgMS45IDIuNCAyLjguNy44IDEuMyAxLjcgMiAyLjYuOCAxLjEgMS41IDIuMSAyLjMgMy4ybC4xLjFjMi45IDQuMyA1LjMgOC44IDcuMyAxMy42LjIuNi41IDEuMi44IDEuOC4yLjYuNSAxLjIuNyAxLjguMi41LjQgMS4xLjYgMS43cy40IDEuMS41IDEuN2MuMS4zLjIuNi4zLjguMyAxLjEuNyAyLjMgMSAzLjQuOSAzLjYgMS42IDcuMiAyIDEwLjggMCAzLjEuMiA2LjEuMiA5LjIiLz48cGF0aCBjbGFzcz0ic3QwIiBkPSJNNDk4LjMgOTUuNUgxMzMuNWMxNC45LTIyLjIgNDAtMzUuNiA2Ni43LTM1LjZoMjMxLjNjMjYuOSAwIDUxLjkgMTMuNCA2Ni44IDM1LjZtMTMuMiAzNS42SDEyMC40YzEuNC0xMi44IDYtMjUgMTMuMS0zNS42aDM2NC44YzcuMiAxMC42IDExLjcgMjIuOSAxMy4yIDM1LjZtLjUgOS4ydjI2LjRIMzc4LjN2LTYuOUgyNTMuNnY2LjlIMTE5Ljl2LTI2LjRjMC0zLjEuMi02LjIuNS05LjJoMzkxLjFjLjMgMy4xLjUgNi4xLjUgOS4yTTExOS45IDE2Ni43aDEzMy43djM1LjZIMTE5Ljl6bTI1OC40IDBINTEydjM1LjZIMzc4LjN6bS0yNTguNCAzNS42aDEzMy43djM1LjZIMTE5Ljl6bTI1OC40IDBINTEydjM1LjZIMzc4LjN6Ii8+PC9zdmc+;" vertex="1" parent="10bdPa7GnfOlh6_msLpF-8">
          <mxGeometry x="14.97999999999999" y="245" width="152" height="116.38" as="geometry" />
        </mxCell>
        <mxCell id="10bdPa7GnfOlh6_msLpF-5" value="OpenLDAP" style="shape=image;verticalLabelPosition=bottom;labelBackgroundColor=default;verticalAlign=top;aspect=fixed;imageAspect=0;editableCssRules=.*;image=data:image/svg+xml,PHN2ZyB4bWxucz0iaHR0cDovL3d3dy53My5vcmcvMjAwMC9zdmciIHZpZXdCb3g9IjQ5LjEzIDIuMjMgNDEzLjc0IDUwNy40NCIgeG1sOnNwYWNlPSJwcmVzZXJ2ZSI+PGxpbmVhckdyYWRpZW50IGdyYWRpZW50VW5pdHM9InVzZXJTcGFjZU9uVXNlIiBncmFkaWVudFRyYW5zZm9ybT0ibWF0cml4KDIxLjE0MjkgMCAwIC0yMS4xNDI5IDE0MDAzLjcyMiAxNjUyMi4xMjEpIiB5Mj0iNzY5LjM0MiIgeTE9Ijc2OS4zNDIiIHgyPSItNjQwLjY5NiIgeDE9Ii02NTkuNzYxIiBpZD0iYSI+PHN0b3Agc3R5bGU9InN0b3AtY29sb3I6IzcyOWZjZiIgb2Zmc2V0PSIwIi8+PHN0b3Agc3R5bGU9InN0b3AtY29sb3I6I2JhYmRiNiIgb2Zmc2V0PSIuMzE2Ii8+PHN0b3Agc3R5bGU9InN0b3AtY29sb3I6IzM0NjVhNCIgb2Zmc2V0PSIxIi8+PC9saW5lYXJHcmFkaWVudD48bGluZWFyR3JhZGllbnQgZ3JhZGllbnRVbml0cz0idXNlclNwYWNlT25Vc2UiIGdyYWRpZW50VHJhbnNmb3JtPSJtYXRyaXgoLjkwMTMgMCAwIC0xLjEwOTUgLTY4LjgwMiA2MDAuODcpIiB5Mj0iMzEwLjg0NiIgeTE9IjMxMC44NDYiIHgyPSI1ODkuNDcxIiB4MT0iMTMxLjI0IiBpZD0iYiI+PHN0b3Agc3R5bGU9InN0b3AtY29sb3I6IzcyOWZjZiIgb2Zmc2V0PSIwIi8+PHN0b3Agc3R5bGU9InN0b3AtY29sb3I6IzIwNGE4NyIgb2Zmc2V0PSIxIi8+PC9saW5lYXJHcmFkaWVudD48cGF0aCBzdHlsZT0iZmlsbDp1cmwoI2EpO3N0cm9rZTp1cmwoI2IpO3N0cm9rZS13aWR0aDoyMS4xNDI5O3N0cm9rZS1taXRlcmxpbWl0OjEwIiBkPSJNMjU0LjMgMTIuOEMxNDcgMTIuOCA1OS43IDUxLjEgNTkuNyA5OC4xdjMxNS43YzAgNDcuMSA4Ny4zIDg1LjMgMTk0LjYgODUuM3MxOTgtMzguMyAxOTgtODUuM1Y5OC4xYzAtNDctOTAuNy04NS4zLTE5OC04NS4zeiIvPjxsaW5lYXJHcmFkaWVudCBncmFkaWVudFVuaXRzPSJ1c2VyU3BhY2VPblVzZSIgZ3JhZGllbnRUcmFuc2Zvcm09Im1hdHJpeCgyMS4xNDI5IDAgMCAtMjEuMTQyOSAxNDAwMy43MjIgMTY1MjIuMTIxKSIgeTI9Ijc0Ni4zMzEiIHkxPSI3NzkuNDQiIHgyPSItNjM4LjkzOSIgeDE9Ii02NTUuMTIzIiBpZD0iYyI+PHN0b3Agc3R5bGU9InN0b3AtY29sb3I6IzM5NzdjMyIgb2Zmc2V0PSIwIi8+PHN0b3Agc3R5bGU9InN0b3AtY29sb3I6Izg5YWVkYztzdG9wLW9wYWNpdHk6MCIgb2Zmc2V0PSIxIi8+PC9saW5lYXJHcmFkaWVudD48cGF0aCBzdHlsZT0ib3BhY2l0eTouNTQ0MztmaWxsOm5vbmU7c3Ryb2tlOnVybCgjYyk7c3Ryb2tlLXdpZHRoOjIxLjE0Mjk7c3Ryb2tlLW1pdGVybGltaXQ6MTAiIGQ9Ik0yNTQuNCAyMy40QzE1NC4zIDIzLjQgNzMgNTkuMSA3MyAxMDN2MzAyLjFjMCA0My45IDgxLjQgNzkuNiAxODEuNCA3OS42UzQzOSA0NDkgNDM5IDQwNS4xVjEwM2MwLTQzLjktODQuNi03OS42LTE4NC42LTc5LjZ6Ii8+PGxpbmVhckdyYWRpZW50IGdyYWRpZW50VW5pdHM9InVzZXJTcGFjZU9uVXNlIiBncmFkaWVudFRyYW5zZm9ybT0ibWF0cml4KDIxLjkzMTQgMCAwIC0yMC4xODM0IDE0NTM4Ljc5NCAxNTc5Mi4wMDYpIiB5Mj0iNzc4LjE1MSIgeTE9Ijc3NS45NjMiIHgyPSItNjUxLjI5IiB4MT0iLTY1MS4yOSIgaWQ9ImQiPjxzdG9wIHN0eWxlPSJzdG9wLWNvbG9yOiNmZmYiIG9mZnNldD0iMCIvPjxzdG9wIHN0eWxlPSJzdG9wLWNvbG9yOiM3MjlmY2YiIG9mZnNldD0iMSIvPjwvbGluZWFyR3JhZGllbnQ+PHBhdGggc3R5bGU9ImZpbGw6IzM0NjVhNDtzdHJva2U6dXJsKCNkKTtzdHJva2Utd2lkdGg6MS4wMDQ5O3N0cm9rZS1taXRlcmxpbWl0OjEwIiBkPSJNNDM3LjIgOTdjMCAzOS42LTgxLjUgNzEuNy0xODIuMSA3MS43UzczIDEzNi42IDczIDk3czgxLjUtNzEuNyAxODIuMS03MS43UzQzNy4yIDU3LjQgNDM3LjIgOTd6Ii8+PGxpbmVhckdyYWRpZW50IGdyYWRpZW50VW5pdHM9InVzZXJTcGFjZU9uVXNlIiBncmFkaWVudFRyYW5zZm9ybT0ibWF0cml4KDIxLjE0MjkgMCAwIC0yMS4xNDI5IDE0MDAwLjcwMSAxNjU3Ny45OTgpIiB5Mj0iNzY4LjEzOCIgeTE9Ijc3NC45MTgiIHgyPSItNjU0LjcyOSIgeDE9Ii02NTQuNTQ0IiBpZD0iZSI+PHN0b3Agc3R5bGU9InN0b3AtY29sb3I6I2ZmZiIgb2Zmc2V0PSIwIi8+PHN0b3Agc3R5bGU9InN0b3AtY29sb3I6I2ZmZjtzdG9wLW9wYWNpdHk6MCIgb2Zmc2V0PSIxIi8+PC9saW5lYXJHcmFkaWVudD48cGF0aCBzdHlsZT0ib3BhY2l0eTouNDkzNztmaWxsOnVybCgjZSkiIGQ9Im0xMTMuNyAxNjAuNCA0LjkgMjI5LjIgNjIuNCAxNy42LTItMjI4LjNzMjguMyAwIDc0LjEtMi45Yy03MS4yLTMuMi0xNTIuNy0zMy44LTE4MC40LTUzLjYgMTkuNCAyOC41IDQxIDM4IDQxIDM4Ii8+PC9zdmc+;" vertex="1" parent="10bdPa7GnfOlh6_msLpF-8">
          <mxGeometry x="264.98" y="229.69000000000005" width="120.04" height="147" as="geometry" />
        </mxCell>
        <mxCell id="10bdPa7GnfOlh6_msLpF-9" value="Authentication Domain" style="text;html=1;align=center;verticalAlign=middle;whiteSpace=wrap;rounded=0;" vertex="1" parent="10bdPa7GnfOlh6_msLpF-8">
          <mxGeometry x="180" y="20" width="60" height="30" as="geometry" />
        </mxCell>
        <mxCell id="10bdPa7GnfOlh6_msLpF-12" value="" style="group" vertex="1" connectable="0" parent="1">
          <mxGeometry x="-330" y="1120" width="590" height="740" as="geometry" />
        </mxCell>
        <mxCell id="10bdPa7GnfOlh6_msLpF-10" value="" style="whiteSpace=wrap;html=1;aspect=fixed;" vertex="1" parent="10bdPa7GnfOlh6_msLpF-12">
          <mxGeometry width="570" height="570" as="geometry" />
        </mxCell>
        <mxCell id="10bdPa7GnfOlh6_msLpF-11" value="LXC Containers" style="text;html=1;align=center;verticalAlign=middle;whiteSpace=wrap;rounded=0;" vertex="1" parent="10bdPa7GnfOlh6_msLpF-12">
          <mxGeometry x="255" y="20" width="60" height="30" as="geometry" />
        </mxCell>
        <mxCell id="10bdPa7GnfOlh6_msLpF-17" value="" style="group" vertex="1" connectable="0" parent="1">
          <mxGeometry x="-920" y="1120" width="590" height="740" as="geometry" />
        </mxCell>
        <mxCell id="10bdPa7GnfOlh6_msLpF-18" value="" style="whiteSpace=wrap;html=1;aspect=fixed;" vertex="1" parent="10bdPa7GnfOlh6_msLpF-17">
          <mxGeometry width="570" height="570" as="geometry" />
        </mxCell>
        <mxCell id="10bdPa7GnfOlh6_msLpF-19" value="VMs" style="text;html=1;align=center;verticalAlign=middle;whiteSpace=wrap;rounded=0;" vertex="1" parent="10bdPa7GnfOlh6_msLpF-17">
          <mxGeometry x="255" y="20" width="60" height="30" as="geometry" />
        </mxCell>
        <mxCell id="10bdPa7GnfOlh6_msLpF-20" value="Proxmox Hypervisor" style="text;html=1;align=center;verticalAlign=middle;whiteSpace=wrap;rounded=0;" vertex="1" parent="1">
          <mxGeometry x="-350" y="470" width="60" height="30" as="geometry" />
        </mxCell>
      </root>
    </mxGraphModel>
  </diagram>
</mxfile>
